Coordinates
version=1
nRows=11
nColumns=40
inDegrees=yes

Units are S.I. units (second, meters, Newtons, ...)
Angles are in degrees.

endheader
time	pelvis_tilt	pelvis_list	pelvis_rotation	pelvis_tx	pelvis_ty	pelvis_tz	hip_flexion_r	hip_adduction_r	hip_rotation_r	knee_angle_r	knee_angle_r_beta	ankle_angle_r	subtalar_angle_r	mtp_angle_r	hip_flexion_l	hip_adduction_l	hip_rotation_l	knee_angle_l	knee_angle_l_beta	ankle_angle_l	subtalar_angle_l	mtp_angle_l	lumbar_extension	lumbar_bending	lumbar_rotation	arm_flex_r	arm_add_r	arm_rot_r	elbow_flex_r	pro_sup_r	wrist_flex_r	wrist_dev_r	arm_flex_l	arm_add_l	arm_rot_l	elbow_flex_l	pro_sup_l	wrist_flex_l	wrist_dev_l
     49.24750000	     -7.46949391	     -4.21620252	      4.69255368	      1.04808001	      0.91752668	      0.48296913	      2.51058865	     -4.17284948	    -14.02609149	     28.77212681	     28.77212681	     12.33902971	     -3.27369977	    -13.08438785	     29.81820553	     -3.23451862	      2.96732172	     27.51697942	     27.51697942	      7.82449407	    -14.24957557	      8.15893197	     -9.66817938	      5.08404328	      4.82115093	     29.80077329	    -14.18008935	      6.96783386	    102.82359871	     43.88404623	      0.00000000	      0.00000000	     -6.10252617	     -6.89400579	     -2.46198245	     34.37359642	     44.80672843	      0.00000000	      0.00000000
     49.26028571	     -7.36803991	     -4.23326037	      4.53634365	      1.04916924	      0.91914805	      0.48012579	      3.57977169	     -4.66241908	    -13.22135248	     31.46030379	     31.46030379	      8.66012414	     -6.22232849	    -18.91199183	     28.94646093	     -3.20226338	      2.75132384	     27.36610492	     27.36610492	      8.57806736	    -14.07465174	      8.50810047	     -9.70325901	      5.11448610	      3.90198737	     29.00321632	    -12.85006297	      6.56677889	     97.83296933	     44.12204210	      0.00000000	      0.00000000	     -6.64736900	     -7.18576425	     -2.96082339	     36.87030574	     44.94891355	      0.00000000	      0.00000000
     49.27307143	     -7.30030973	     -4.14514936	      4.32607904	      1.05002081	      0.92047859	      0.47725809	      5.17161446	     -5.48735933	    -12.66946630	     35.20230948	     35.20230948	      6.79563383	     -7.32113805	    -19.35251588	     28.06665907	     -3.08807054	      2.39870348	     27.13840531	     27.13840531	      9.12010500	    -13.89431126	      8.29535830	     -9.80075789	      5.06534581	      4.26024310	     27.09398897	    -13.41285636	      6.69716431	     95.71923892	     44.18521827	      0.00000000	      0.00000000	     -5.79609637	     -7.32482199	     -3.10662023	     37.65447203	     44.98956069	      0.00000000	      0.00000000
     49.28585714	     -7.34348772	     -4.22642044	      4.11330011	      1.05058747	      0.92146386	      0.47478044	      7.04978801	     -5.88959797	    -11.60466563	     38.88329722	     38.88329722	      3.94077965	     -9.94474948	    -20.90067891	     27.35472037	     -3.19453335	      1.98114540	     26.90649588	     26.90649588	      9.60945649	    -13.50679020	      7.77632978	     -9.62410131	      5.11957290	      3.72700948	     26.41387112	    -12.67065643	      6.35511072	     90.11825000	     44.42784719	      0.00000000	      0.00000000	     -6.13583383	     -7.74833523	     -3.28421901	     40.30683883	     45.10068872	      0.00000000	      0.00000000
     49.29864286	     -7.25357666	     -4.05598945	      3.92746890	      1.05105381	      0.92234223	      0.47211339	      8.98139755	     -6.71076360	    -10.85720243	     42.92522675	     42.92522675	      1.77473701	    -11.20739261	    -20.64710654	     26.46858571	     -3.01389774	      1.54661061	     26.66842512	     26.66842512	     10.17667754	    -13.18571673	      7.48676983	     -9.76225325	      4.96500864	      3.92794183	     24.56616798	    -13.08023284	      6.44122175	     87.99641507	     44.49111451	      0.00000000	      0.00000000	     -5.13352804	     -7.97637211	     -3.39897223	     41.14671034	     45.13805509	      0.00000000	      0.00000000
     49.31142857	     -7.27904491	     -4.17060008	      3.68560724	      1.05122548	      0.92297377	      0.46998688	     11.21902111	     -6.95008656	     -9.75682803	     46.94531800	     46.94531800	     -0.17602055	    -12.95431166	    -18.41670808	     25.81867393	     -3.23933902	      0.92151893	     26.52617006	     26.52617006	     10.66491484	    -12.45681335	      6.70494039	     -9.61986429	      5.07700504	      3.40301134	     24.13157840	    -12.13788902	      5.69590927	     81.65239445	     44.75012703	      0.00000000	      0.00000000	     -5.40215497	     -8.59928327	     -3.09906982	     43.78531796	     45.18915628	      0.00000000	      0.00000000
     49.32421429	     -7.19430672	     -3.97951098	      3.48961208	      1.05123003	      0.92349067	      0.46758192	     13.36072524	     -7.64720642	     -8.97101063	     50.84575468	     50.84575468	     -2.29725098	    -14.22820085	    -17.53558506	     25.02130377	     -3.05559191	      0.43236272	     26.37222607	     26.37222607	     11.16624390	    -12.13786928	      6.41322599	     -9.78398671	      4.94677209	      3.57425961	     22.34331535	    -12.67150406	      5.81489373	     79.50172208	     44.81267428	      0.00000000	      0.00000000	     -4.25731468	     -8.90401098	     -3.21602622	     44.74623501	     45.22989331	      0.00000000	      0.00000000
     49.33700000	     -7.18721763	     -3.98603113	      3.24626985	      1.05099727	      0.92381458	      0.46555639	     15.68361038	     -7.91763582	     -8.01504976	     54.57175682	     54.57175682	     -4.05091892	    -15.63657180	    -15.61683128	     24.36031453	     -3.13140741	     -0.10046056	     26.24790828	     26.24790828	     11.74084004	    -11.58948228	      5.97582957	     -9.81596532	      4.97647893	      3.97347962	     20.77888833	    -13.17807909	      5.59810579	     76.08124789	     44.93032730	      0.00000000	      0.00000000	     -3.25516948	     -9.19030119	     -3.17419332	     46.05817354	     45.25991735	      0.00000000	      0.00000000
     49.34978571	     -7.00591721	     -4.06532650	      3.08681156	      1.05071851	      0.92427896	      0.46371584	     18.01575730	     -8.09462142	     -7.31845427	     58.55975465	     58.55975465	     -3.05403492	    -15.09680364	     -6.85705361	     23.60215920	     -3.32098330	     -0.67044461	     26.25624399	     26.25624399	     12.25234039	    -10.86190512	      5.17630122	     -9.93058537	      5.07501343	      2.77687194	     21.17342773	    -11.91832153	      5.48590025	     68.58990852	     45.19687621	      0.00000000	      0.00000000	     -3.65728930	    -10.22370993	     -2.37118959	     49.36861389	     45.34263568	      0.00000000	      0.00000000
     49.36257143	     -6.83998680	     -3.93716343	      2.95360676	      1.05029124	      0.92472482	      0.46175605	     20.04829472	     -8.53692444	     -6.81363053	     61.58261689	     61.58261689	     -4.45500791	    -16.21018212	     -6.22319052	     22.80644298	     -3.19680212	     -1.05445861	     26.17148848	     26.17148848	     12.74829169	    -10.53676895	      4.91555333	    -10.21525486	      4.97639506	      2.78655209	     19.27870793	    -12.38148218	      5.59737637	     66.77494794	     45.24624991	      0.00000000	      0.00000000	     -2.32692774	    -10.64387010	     -2.56128682	     50.14254753	     45.38862966	      0.00000000	      0.00000000
     49.37535714	     -6.74176730	     -4.05018183	      2.70129788	      1.04971354	      0.92518713	      0.46034853	     22.33556800	     -8.54563691	     -6.24430673	     64.60299062	     64.60299062	     -3.83143589	    -16.40501647	     -0.67984360	     22.09703882	     -3.45484890	     -1.66011792	     26.08124961	     26.08124961	     13.30625447	     -9.74049058	      4.43190051	    -10.28602542	      5.13866246	      2.64282331	     18.96628505	    -12.00190358	      4.88850047	     60.06891660	     45.49271090	      0.00000000	      0.00000000	     -1.61780066	    -11.28060793	     -1.91889759	     52.07860809	     45.48053139	      0.00000000	      0.00000000
